<svg width="60" height="60" viewBox="0 0 60 60" fill="none" xmlns="http://www.w3.org/2000/svg">
<g clip-path="url(#clip0_1_8)">
<path d="M60 50.5136L60 9.48642C60 4.25297 55.747 0 50.5136 0L9.48642 0C4.25297 0 0 4.25297 0 9.48642L0 50.5136C0 55.747 4.25297 60 9.48642 60L50.5136 60C55.7343 60 60 55.7343 60 50.5136ZM9.48642 56.562C6.15025 56.562 3.43803 53.8497 3.43803 50.5136L3.43803 9.48642C3.43803 6.15025 6.15025 3.43803 9.48642 3.43803L50.5136 3.43803C53.8497 3.43803 56.562 6.15025 56.562 9.48642L56.562 50.5136C56.562 53.8497 53.8497 56.562 50.5136 56.562L9.48642 56.562Z" fill="black"/>
<g clip-path="url(#clip1_1_8)">
<path d="M32.7161 12.716C23.1883 12.716 15.4403 20.4722 15.4403 30V30.0571L12.0194 24.9054C11.6847 24.3992 10.9989 24.2604 10.4927 24.5952C9.98651 24.9299 9.84772 25.6157 10.1825 26.1219L15.1464 33.5923C15.326 33.8617 15.6117 34.0331 15.9302 34.074C15.9791 34.0821 16.02 34.0821 16.069 34.0821C16.3384 34.0821 16.5996 33.9842 16.8037 33.7964L23.7026 27.5833C24.1517 27.1751 24.1925 26.4811 23.7843 26.0239C23.376 25.5749 22.6821 25.5341 22.2249 25.9423L17.6447 30.0816V30C17.6447 21.6805 24.4048 14.9204 32.7161 14.9204C41.0274 14.9204 47.7956 21.6805 47.7956 30C47.7956 38.3194 41.0355 45.0795 32.7242 45.0795C28.6992 45.0795 24.9109 43.512 22.0697 40.6626C21.637 40.2299 20.9431 40.2299 20.5104 40.6626C20.0776 41.0953 20.0776 41.7893 20.5104 42.222C23.7761 45.4877 28.1114 47.2839 32.7242 47.2839C42.2439 47.2839 49.5 39.5359 49.5 30C49.5 20.464 42.2439 12.716 32.7161 12.716Z" fill="black" stroke="black" stroke-width="0.3"/>
</g>
</g>
<defs>
<clipPath id="clip0_1_8">
<rect width="60" height="60" fill="white" transform="matrix(0 1 -1 0 60 0)"/>
</clipPath>
<clipPath id="clip1_1_8">
<rect width="40" height="40" fill="white" transform="translate(10 10)"/>
</clipPath>
</defs>
</svg>
