<svg width="60" height="60" viewBox="0 0 60 60" fill="none" xmlns="http://www.w3.org/2000/svg">
<g clip-path="url(#clip0_1_26)">
<path d="M0 9.48642L0 50.5136C0 55.747 4.25297 60 9.48642 60H50.5136C55.747 60 60 55.747 60 50.5136V9.48642C60 4.25297 55.747 6.03312e-07 50.5136 6.03312e-07H9.48642C4.2657 6.03312e-07 0 4.26571 0 9.48642ZM50.5136 3.43803C53.8497 3.43803 56.562 6.15025 56.562 9.48642V50.5136C56.562 53.8497 53.8497 56.562 50.5136 56.562H9.48642C6.15025 56.562 3.43803 53.8497 3.43803 50.5136L3.43803 9.48642C3.43803 6.15025 6.15025 3.43803 9.48642 3.43803H50.5136Z" fill="black"/>
<path d="M14.9109 28.7903C14.236 29.4652 14.236 30.5475 14.9109 31.2224L23.888 40.1867C24.5628 40.8616 25.6452 40.8616 26.32 40.1867C26.9949 39.5119 26.9949 38.4295 26.32 37.7547L20.2717 31.7063H43.8795C44.8345 31.7063 45.5985 30.9423 45.5985 29.9873C45.5985 29.0322 44.8345 28.2682 43.8795 28.2682H20.2717L26.3073 22.2326C26.6384 21.9015 26.8167 21.4558 26.8167 21.0229C26.8167 20.59 26.6511 20.1443 26.3073 19.8132C25.6324 19.1384 24.5501 19.1384 23.8752 19.8132L14.9109 28.7903Z" fill="black"/>
</g>
<defs>
<clipPath id="clip0_1_26">
<rect width="60" height="60" fill="white" transform="matrix(0 -1 1 0 0 60)"/>
</clipPath>
</defs>
</svg>
