<svg width="60" height="60" viewBox="0 0 60 60" fill="none" xmlns="http://www.w3.org/2000/svg">
<g clip-path="url(#clip0_1_8)">
<path d="M60 50.5136L60 9.48642C60 4.25297 55.747 0 50.5136 0L9.48642 0C4.25297 0 6.03312e-07 4.25297 6.03312e-07 9.48642L6.03312e-07 50.5136C6.03312e-07 55.747 4.25297 60 9.48642 60L50.5136 60C55.7343 60 60 55.7343 60 50.5136ZM9.48642 56.562C6.15025 56.562 3.43803 53.8497 3.43803 50.5136L3.43803 9.48642C3.43803 6.15025 6.15025 3.43803 9.48642 3.43803L50.5136 3.43803C53.8497 3.43803 56.562 6.15025 56.562 9.48642L56.562 50.5136C56.562 53.8497 53.8497 56.562 50.5136 56.562L9.48642 56.562Z" fill="black"/>
<path d="M45.0891 31.2097C45.764 30.5348 45.764 29.4525 45.0891 28.7776L36.112 19.8132C35.4372 19.1384 34.3548 19.1384 33.68 19.8132C33.0051 20.4881 33.0051 21.5705 33.68 22.2453L39.7283 28.2937L16.1205 28.2937C15.1655 28.2937 14.4015 29.0577 14.4015 30.0127C14.4015 30.9677 15.1655 31.7318 16.1205 31.7318L39.7283 31.7318L33.6927 37.7674C33.3616 38.0985 33.1833 38.5441 33.1833 38.9771C33.1833 39.41 33.3489 39.8557 33.6927 40.1868C34.3676 40.8616 35.4499 40.8616 36.1248 40.1868L45.0891 31.2097Z" fill="black"/>
</g>
<defs>
<clipPath id="clip0_1_8">
<rect width="60" height="60" fill="white" transform="matrix(0 1 -1 0 60 0)"/>
</clipPath>
</defs>
</svg>
