<svg width="60" height="60" viewBox="0 0 60 60" fill="none" xmlns="http://www.w3.org/2000/svg">
<g clip-path="url(#clip0_1_14)">
<path d="M9.48642 60L50.5136 60C55.747 60 60 55.747 60 50.5136L60 9.48642C60 4.25297 55.747 6.03312e-07 50.5136 6.03312e-07L9.48642 6.03312e-07C4.25297 6.03312e-07 6.03312e-07 4.25297 6.03312e-07 9.48642L6.03312e-07 50.5136C6.03312e-07 55.7343 4.26571 60 9.48642 60ZM3.43803 9.48642C3.43803 6.15025 6.15025 3.43803 9.48642 3.43803L50.5136 3.43803C53.8497 3.43803 56.562 6.15025 56.562 9.48642L56.562 50.5136C56.562 53.8497 53.8497 56.562 50.5136 56.562L9.48642 56.562C6.15025 56.562 3.43803 53.8497 3.43803 50.5136L3.43803 9.48642Z" fill="black"/>
<path d="M28.7903 45.0891C29.4652 45.764 30.5475 45.764 31.2224 45.0891L40.1868 36.112C40.8616 35.4372 40.8616 34.3548 40.1868 33.68C39.5119 33.0051 38.4295 33.0051 37.7547 33.68L31.7063 39.7283L31.7063 16.1205C31.7063 15.1655 30.9423 14.4015 29.9873 14.4015C29.0323 14.4015 28.2683 15.1655 28.2683 16.1205L28.2683 39.7283L22.2326 33.6927C21.9015 33.3616 21.4559 33.1833 21.0229 33.1833C20.59 33.1833 20.1443 33.3489 19.8132 33.6927C19.1384 34.3676 19.1384 35.4499 19.8132 36.1248L28.7903 45.0891Z" fill="black"/>
</g>
<defs>
<clipPath id="clip0_1_14">
<rect width="60" height="60" fill="white" transform="matrix(-1 0 0 -1 60 60)"/>
</clipPath>
</defs>
</svg>
